<svg width="11" height="18" viewBox="0 0 11 18" fill="none" xmlns="http://www.w3.org/2000/svg">
<path d="M7.72121 3.41569H9.996C10.2053 3.41569 10.3751 3.25564 10.3751 3.05843V0.914876C10.3751 0.717669 10.2053 0.557617 9.996 0.557617H7.72121C5.42215 0.557617 3.55076 2.32033 3.55076 4.48747V6.98828H0.896832C0.687551 6.98828 0.5177 7.14833 0.5177 7.34554V9.48909C0.5177 9.6863 0.687551 9.84635 0.896832 9.84635H3.55076V17.3488C3.55076 17.546 3.72061 17.7061 3.92989 17.7061H6.20468C6.41396 17.7061 6.58381 17.546 6.58381 17.3488V9.84635H9.23774C9.40076 9.84635 9.54559 9.74775 9.59791 9.60199L10.3562 7.45843C10.3948 7.34983 10.3751 7.22979 10.3039 7.13619C10.2318 7.0433 10.1181 6.98828 9.996 6.98828H6.58381V4.48747C6.58381 3.89656 7.09412 3.41569 7.72121 3.41569Z" fill="white"/>
</svg>
