<svg width="18" height="18" viewBox="0 0 18 18" fill="none" xmlns="http://www.w3.org/2000/svg">
<path d="M3.07041 4.7541C4.22924 4.7541 5.16865 3.81469 5.16865 2.65586C5.16865 1.49703 4.22924 0.557617 3.07041 0.557617C1.91158 0.557617 0.972168 1.49703 0.972168 2.65586C0.972168 3.81469 1.91158 4.7541 3.07041 4.7541Z" fill="white"/>
<path d="M4.81882 6.15576H1.32175C1.12871 6.15576 0.972046 6.31243 0.972046 6.50547V16.9967C0.972046 17.1897 1.12871 17.3464 1.32175 17.3464H4.81882C5.01186 17.3464 5.16853 17.1897 5.16853 16.9967V6.50547C5.16853 6.31243 5.01186 6.15576 4.81882 6.15576Z" fill="white"/>
<path d="M15.24 5.57352C13.7453 5.06155 11.8758 5.51127 10.7546 6.31769C10.7162 6.16732 10.5791 6.05541 10.4161 6.05541H6.91904C6.726 6.05541 6.56934 6.21208 6.56934 6.40512V16.8963C6.56934 17.0894 6.726 17.246 6.91904 17.246H10.4161C10.6092 17.246 10.7658 17.0894 10.7658 16.8963V9.35665C11.3309 8.86985 12.059 8.71458 12.6549 8.96777C13.2327 9.21187 13.5635 9.80777 13.5635 10.6016V16.8963C13.5635 17.0894 13.7201 17.246 13.9132 17.246H17.4103C17.6033 17.246 17.76 17.0894 17.76 16.8963V9.89729C17.7201 7.0234 16.3681 5.95959 15.24 5.57352Z" fill="white"/>
</svg>
