<svg width="105" height="23" viewBox="0 0 105 23" fill="none" xmlns="http://www.w3.org/2000/svg">
<path d="M10.032 18.288C8.736 18.288 7.528 18.08 6.408 17.664C5.304 17.232 4.344 16.624 3.528 15.84C2.712 15.056 2.072 14.136 1.608 13.08C1.16 12.024 0.936 10.864 0.936 9.6C0.936 8.336 1.16 7.176 1.608 6.12C2.072 5.064 2.712 4.144 3.528 3.36C4.36 2.576 5.328 1.976 6.432 1.56C7.536 1.128 8.744 0.912 10.056 0.912C11.512 0.912 12.824 1.168 13.992 1.68C15.176 2.176 16.168 2.912 16.968 3.888L14.472 6.192C13.896 5.536 13.256 5.048 12.552 4.728C11.848 4.392 11.08 4.224 10.248 4.224C9.464 4.224 8.744 4.352 8.088 4.608C7.432 4.864 6.864 5.232 6.384 5.712C5.904 6.192 5.528 6.76 5.256 7.416C5 8.072 4.872 8.8 4.872 9.6C4.872 10.4 5 11.128 5.256 11.784C5.528 12.44 5.904 13.008 6.384 13.488C6.864 13.968 7.432 14.336 8.088 14.592C8.744 14.848 9.464 14.976 10.248 14.976C11.08 14.976 11.848 14.816 12.552 14.496C13.256 14.16 13.896 13.656 14.472 12.984L16.968 15.288C16.168 16.264 15.176 17.008 13.992 17.52C12.824 18.032 11.504 18.288 10.032 18.288ZM20.8282 22.848C20.1562 22.848 19.4922 22.744 18.8362 22.536C18.1802 22.328 17.6442 22.04 17.2282 21.672L18.5962 19.008C18.8842 19.264 19.2122 19.464 19.5802 19.608C19.9642 19.752 20.3402 19.824 20.7082 19.824C21.2362 19.824 21.6522 19.696 21.9562 19.44C22.2762 19.2 22.5642 18.792 22.8202 18.216L23.4922 16.632L23.7802 16.224L28.4122 5.088H32.0122L26.1802 18.792C25.7642 19.832 25.2842 20.648 24.7402 21.24C24.2122 21.832 23.6202 22.248 22.9642 22.488C22.3242 22.728 21.6122 22.848 20.8282 22.848ZM23.0362 18.504L17.2762 5.088H21.1402L25.6042 15.888L23.0362 18.504ZM41.0386 18.192C39.9026 18.192 38.9266 17.952 38.1106 17.472C37.2946 16.992 36.6706 16.264 36.2386 15.288C35.8066 14.296 35.5906 13.048 35.5906 11.544C35.5906 10.024 35.8146 8.776 36.2626 7.8C36.7266 6.824 37.3666 6.096 38.1826 5.616C38.9986 5.136 39.9506 4.896 41.0386 4.896C42.2546 4.896 43.3426 5.168 44.3026 5.712C45.2786 6.256 46.0466 7.024 46.6066 8.016C47.1826 9.008 47.4706 10.184 47.4706 11.544C47.4706 12.888 47.1826 14.056 46.6066 15.048C46.0466 16.04 45.2786 16.816 44.3026 17.376C43.3426 17.92 42.2546 18.192 41.0386 18.192ZM33.4066 18V0.191999H37.1506V7.704L36.9106 11.52L36.9826 15.36V18H33.4066ZM40.3906 15.12C41.0146 15.12 41.5666 14.976 42.0466 14.688C42.5426 14.4 42.9346 13.992 43.2226 13.464C43.5266 12.92 43.6786 12.28 43.6786 11.544C43.6786 10.792 43.5266 10.152 43.2226 9.624C42.9346 9.096 42.5426 8.688 42.0466 8.4C41.5666 8.112 41.0146 7.968 40.3906 7.968C39.7666 7.968 39.2066 8.112 38.7106 8.4C38.2146 8.688 37.8226 9.096 37.5346 9.624C37.2466 10.152 37.1026 10.792 37.1026 11.544C37.1026 12.28 37.2466 12.92 37.5346 13.464C37.8226 13.992 38.2146 14.4 38.7106 14.688C39.2066 14.976 39.7666 15.12 40.3906 15.12ZM56.2516 18.192C54.7796 18.192 53.4836 17.904 52.3636 17.328C51.2596 16.752 50.4036 15.968 49.7956 14.976C49.1876 13.968 48.8836 12.824 48.8836 11.544C48.8836 10.248 49.1796 9.104 49.7716 8.112C50.3796 7.104 51.2036 6.32 52.2436 5.76C53.2836 5.184 54.4596 4.896 55.7716 4.896C57.0356 4.896 58.1716 5.168 59.1796 5.712C60.2036 6.24 61.0116 7.008 61.6036 8.016C62.1956 9.008 62.4916 10.2 62.4916 11.592C62.4916 11.736 62.4836 11.904 62.4676 12.096C62.4516 12.272 62.4356 12.44 62.4196 12.6H51.9316V10.416H60.4516L59.0116 11.064C59.0116 10.392 58.8756 9.808 58.6036 9.312C58.3316 8.816 57.9556 8.432 57.4756 8.16C56.9956 7.872 56.4356 7.728 55.7956 7.728C55.1556 7.728 54.5876 7.872 54.0916 8.16C53.6116 8.432 53.2356 8.824 52.9636 9.336C52.6916 9.832 52.5556 10.424 52.5556 11.112V11.688C52.5556 12.392 52.7076 13.016 53.0116 13.56C53.3316 14.088 53.7716 14.496 54.3316 14.784C54.9076 15.056 55.5796 15.192 56.3476 15.192C57.0356 15.192 57.6356 15.088 58.1476 14.88C58.6756 14.672 59.1556 14.36 59.5876 13.944L61.5796 16.104C60.9876 16.776 60.2436 17.296 59.3476 17.664C58.4516 18.016 57.4196 18.192 56.2516 18.192ZM64.8509 18V5.088H68.4269V8.736L67.9229 7.68C68.3069 6.768 68.9229 6.08 69.7709 5.616C70.6189 5.136 71.6509 4.896 72.8669 4.896V8.352C72.7069 8.336 72.5629 8.328 72.4349 8.328C72.3069 8.312 72.1709 8.304 72.0269 8.304C71.0029 8.304 70.1709 8.6 69.5309 9.192C68.9069 9.768 68.5949 10.672 68.5949 11.904V18H64.8509ZM76.2351 18.192C75.5951 18.192 75.0431 17.976 74.5791 17.544C74.1311 17.096 73.9071 16.528 73.9071 15.84C73.9071 15.152 74.1311 14.6 74.5791 14.184C75.0431 13.752 75.5951 13.536 76.2351 13.536C76.8911 13.536 77.4431 13.752 77.8911 14.184C78.3391 14.6 78.5631 15.152 78.5631 15.84C78.5631 16.528 78.3391 17.096 77.8911 17.544C77.4431 17.976 76.8911 18.192 76.2351 18.192ZM79.7965 18L87.2845 1.2H91.1245L98.6365 18H94.5565L88.4125 3.168H89.9485L83.7805 18H79.7965ZM83.5405 14.4L84.5725 11.448H93.2125L94.2685 14.4H83.5405ZM100.246 18V1.2H104.134V18H100.246Z" fill="url(#paint0_linear_1_22)"/>
<defs>
<linearGradient id="paint0_linear_1_22" x1="0" y1="9.5" x2="107" y2="9.5" gradientUnits="userSpaceOnUse">
<stop stop-color="#F0B71F"/>
<stop offset="1" stop-color="#E03609"/>
</linearGradient>
</defs>
</svg>
