<svg width="18" height="16" viewBox="0 0 18 16" fill="none" xmlns="http://www.w3.org/2000/svg">
<path d="M17.2751 2.17492C17.1602 2.0451 16.9751 2.01245 16.8232 2.09252C16.7287 2.14227 16.5511 2.20756 16.3402 2.27208C16.6063 1.90829 16.8201 1.50097 16.9146 1.13484C16.9554 0.977047 16.8957 0.810697 16.7657 0.71664C16.6357 0.62336 16.4627 0.62336 16.3327 0.71664C16.1279 0.863556 15.1394 1.30508 14.5144 1.44811C13.1019 0.175617 11.4582 0.0434708 9.74944 1.06955C8.36039 1.90363 8.05809 3.59977 8.11704 4.63362C4.93764 4.3188 2.96139 2.59157 1.84894 1.16205C1.7711 1.06178 1.64564 1.00892 1.52775 1.01669C1.40381 1.02602 1.29196 1.09676 1.22848 1.20636C0.702482 2.11972 0.556624 3.12948 0.808285 4.1268C0.94583 4.67093 1.18615 5.15054 1.46502 5.53921C1.33126 5.47158 1.20203 5.38685 1.08035 5.2858C0.968502 5.19096 0.812064 5.17308 0.679809 5.23605C0.548311 5.30057 0.464424 5.43738 0.464424 5.5874C0.464424 7.29987 1.50583 8.44254 2.47847 9.03953C2.32127 9.0201 2.15728 8.98434 1.99177 8.93226C1.84969 8.88795 1.69552 8.93226 1.59728 9.04731C1.49903 9.16158 1.4756 9.32482 1.53682 9.46396C2.08322 10.7069 3.11858 11.562 4.39956 11.8721C3.28106 12.5476 1.78394 12.8788 0.413034 12.7163C0.235435 12.6907 0.0661492 12.8065 0.0102245 12.9822C-0.0457002 13.1578 0.0276065 13.3506 0.184045 13.4408C2.26384 14.6418 4.14412 15.0709 5.76896 15.0709C8.13367 15.0709 9.95878 14.1629 11.0697 13.4035C14.0647 11.3591 15.9314 7.68853 15.6714 4.4043C16.1513 4.03973 16.8693 3.36657 17.3144 2.64287C17.4066 2.49673 17.39 2.30395 17.2751 2.17492Z" fill="white"/>
</svg>
