<svg width="61" height="61" viewBox="0 0 61 61" fill="none" xmlns="http://www.w3.org/2000/svg">
<path fill-rule="evenodd" clip-rule="evenodd" d="M42.1718 58.6783C38.4714 60.2111 34.5053 61 30.5 61L30.5 30.5L61 30.5C61 34.5053 60.2111 38.4714 58.6783 42.1718C57.1456 45.8723 54.8989 49.2346 52.0668 52.0668C49.2346 54.8989 45.8723 57.1456 42.1718 58.6783ZM30.5 30.5L30.5 2.4815e-06C26.4947 1.95627e-06 22.5286 0.788907 18.8282 2.32168C15.1277 3.85444 11.7654 6.10106 8.93325 8.93324C6.10106 11.7654 3.85445 15.1277 2.32168 18.8282C0.788909 22.5286 2.65658e-06 26.4947 2.4815e-06 30.5L30.5 30.5Z" fill="#F0B71F"/>
</svg>
