<svg width="61" height="61" viewBox="0 0 61 61" fill="none" xmlns="http://www.w3.org/2000/svg">
<path fill-rule="evenodd" clip-rule="evenodd" d="M58.6783 18.8282C60.2111 22.5286 61 26.4947 61 30.5H30.5L30.5 3.8147e-06C34.5053 3.8147e-06 38.4714 0.788909 42.1718 2.32168C45.8723 3.85445 49.2346 6.10106 52.0668 8.93325C54.8989 11.7654 57.1456 15.1277 58.6783 18.8282ZM30.5 30.5L0 30.5C-3.50156e-07 34.5053 0.788905 38.4714 2.32167 42.1718C3.85444 45.8723 6.10105 49.2346 8.93324 52.0668C11.7654 54.8989 15.1277 57.1456 18.8282 58.6783C22.5286 60.2111 26.4947 61 30.5 61L30.5 30.5Z" fill="#E03609"/>
</svg>
